Coordinates
version=1
nRows=20
nColumns=30
inDegrees=yes

Units are S.I. units (second, meters, Newtons, ...)
Angles are in degrees.

endheader
time	floatyaw	floatroll	floatpitch	floatx	floaty	floatz	pro_sup_l	deviation_l	flexion_l	cmc_flexion_l	cmc_abduction_l	mp_flexion_l	ip_flexion_l	2mcp_flexion_l	2mcp_abduction_l	2pm_flexion_l	2md_flexion_l	3mcp_flexion_l	3mcp_abduction_l	3pm_flexion_l	3md_flexion_l	4mcp_flexion_l	4mcp_abduction_l	4pm_flexion_l	4md_flexion_l	5mcp_flexion_l	5mcp_abduction_l	5pm_flexion_l	5md_flexion_l
-1.495000	-0.679314	-3.115271	87.889519	-0.010914	-0.228905	0.004701	87.515902	-0.268574	-5.136390	27.487987	0.470093	-19.020213	-34.262934	16.032208	5.889036	34.303696	20.744532	3.928756	4.100994	38.376558	21.342329	-8.024638	-3.133364	57.155362	28.445374	-25.366975	-8.337868	66.595997	38.917244
-1.485000	-0.679314	-3.115271	87.889519	-0.010932	-0.228908	0.004703	87.463646	-0.289646	-5.118189	27.483277	0.512362	-19.016105	-34.305141	16.032394	5.886125	34.267323	20.746315	3.908379	4.103587	38.341464	21.348418	-8.059662	-3.137589	57.140887	28.453280	-25.386908	-8.292839	66.482404	38.942000
-1.475000	-0.679314	-3.115271	87.889519	-0.010930	-0.228899	0.004684	87.430465	-0.302857	-5.106590	27.482621	0.556576	-19.011786	-34.320437	16.040048	5.899132	34.255542	20.751095	3.905046	4.103100	38.327164	21.355491	-8.073305	-3.144450	57.152953	28.464516	-25.387145	-8.254328	66.420431	38.963212
-1.465000	-0.679314	-3.115271	87.889519	-0.010914	-0.228878	0.004661	87.421370	-0.309817	-5.099675	27.482220	0.588279	-19.005829	-34.307966	16.044977	5.921916	34.269133	20.751105	3.918226	4.098465	38.326972	21.352962	-8.067102	-3.149511	57.181146	28.468414	-25.366204	-8.230654	66.390380	38.971762
-1.455000	-0.679314	-3.115271	87.889519	-0.010893	-0.228850	0.004648	87.431609	-0.313779	-5.093791	27.478604	0.602285	-18.997816	-34.276119	16.037524	5.946429	34.306750	20.743755	3.940405	4.089714	38.335104	21.335863	-8.052421	-3.149397	57.217803	28.460297	-25.333542	-8.228228	66.364950	38.964177
-1.445000	-0.679314	-3.115271	87.889519	-0.010871	-0.228822	0.004648	87.449213	-0.317702	-5.086608	27.472273	0.605516	-18.989502	-34.241749	16.012876	5.966626	34.367105	20.734194	3.961858	4.078528	38.349842	21.308186	-8.044327	-3.144216	57.262019	28.444916	-25.305970	-8.248063	66.327907	38.946137
-1.435000	-0.679314	-3.115271	87.889519	-0.010847	-0.228802	0.004657	87.461413	-0.322640	-5.079787	27.467652	0.613468	-18.984360	-34.223835	15.975239	5.981023	34.446824	20.732476	3.978420	4.068127	38.371243	21.281057	-8.050813	-3.137711	57.315595	28.434836	-25.297605	-8.283950	66.282776	38.931810
-1.425000	-0.679314	-3.115271	87.889519	-0.010815	-0.228798	0.004661	87.460759	-0.327521	-5.079014	27.469727	0.642581	-18.986022	-34.234716	15.938632	5.992585	34.536624	20.746884	3.996237	4.062310	38.396133	21.266771	-8.065713	-3.135050	57.375688	28.444327	-25.310492	-8.324205	66.246466	38.938728
-1.415000	-0.679314	-3.115271	87.889519	-0.010776	-0.228813	0.004652	87.447423	-0.330299	-5.091015	27.480371	0.702746	-18.996581	-34.274746	15.922219	6.006181	34.620853	20.777793	4.028918	4.064007	38.415903	21.272459	-8.071546	-3.139949	57.431820	28.482053	-25.332721	-8.356701	66.233484	38.980591
-1.405000	-0.679314	-3.115271	87.889519	-0.010731	-0.228842	0.004627	87.427227	-0.329515	-5.119275	27.497376	0.793016	-19.015501	-34.334057	15.941326	6.025331	34.682859	20.816289	4.087973	4.074111	38.420064	21.297229	-8.051201	-3.153034	57.470725	28.546644	-25.345704	-8.374379	66.242607	39.061602
-1.395000	-0.679314	-3.115271	87.889519	-0.010687	-0.228880	0.004591	87.407689	-0.325110	-5.161178	27.516503	0.901505	-19.039399	-34.399543	15.998533	6.050207	34.713600	20.848646	4.172879	4.091237	38.403192	21.334001	-8.000406	-3.172106	57.485293	28.627381	-25.335943	-8.377681	66.255679	39.174724
-1.385000	-0.679314	-3.115271	87.889519	-0.010652	-0.228916	0.004551	87.394831	-0.317982	-5.208451	27.534161	1.009084	-19.062758	-34.461065	16.080448	6.077784	34.717550	20.863887	4.268121	4.112301	38.369699	21.374153	-7.931798	-3.193574	57.480223	28.709080	-25.303246	-8.372357	66.249401	39.304143
-1.375000	-0.679314	-3.115271	87.889519	-0.010627	-0.228943	0.004511	87.392109	-0.308705	-5.250564	27.548033	1.095361	-19.079279	-34.511944	16.162865	6.103533	34.711158	20.859563	4.349498	4.133356	38.332846	21.411810	-7.867877	-3.213930	57.470110	28.778078	-25.259962	-8.364425	66.212117	39.430183
-1.365000	-0.679314	-3.115271	87.889519	-0.010609	-0.228954	0.004469	87.401115	-0.296511	-5.278707	27.555324	1.144196	-19.083293	-34.544123	16.221235	6.123435	34.714402	20.842226	4.394840	4.150227	38.309271	21.445273	-7.828832	-3.230560	57.471960	28.825763	-25.222625	-8.356028	66.154027	39.533651
-1.355000	-0.679314	-3.115271	87.889519	-0.010592	-0.228948	0.004422	87.422678	-0.279591	-5.288171	27.551070	1.146734	-19.070938	-34.543772	16.240278	6.135462	34.740436	20.822670	4.392248	4.159150	38.312532	21.475118	-7.823754	-3.241820	57.497100	28.848216	-25.202245	-8.345115	66.102904	39.597824
-1.345000	-0.679314	-3.115271	87.889519	-0.010575	-0.228922	0.004368	87.457111	-0.256846	-5.279017	27.529366	1.102807	-19.041436	-34.494002	16.219024	6.140334	34.788466	20.809487	4.343383	4.157759	38.347629	21.500843	-7.848535	-3.246722	57.545636	28.844232	-25.198460	-8.329002	66.086376	39.609743
-1.335000	-0.679314	-3.115271	87.889519	-0.010557	-0.228882	0.004313	87.503118	-0.229802	-5.256012	27.487473	1.022581	-18.998471	-34.385459	16.171090	6.141375	34.842704	20.805337	4.263186	4.146245	38.407480	21.519279	-7.888313	-3.244751	57.604616	28.815451	-25.199221	-8.308938	66.111626	39.563830
-1.325000	-0.679314	-3.115271	87.889519	-0.010547	-0.228833	0.004269	87.556208	-0.202958	-5.227702	27.429219	0.927100	-18.950391	-34.227023	16.120180	6.143143	34.878367	20.807811	4.176076	4.127824	38.473841	21.526461	-7.922605	-3.236208	57.651496	28.768785	-25.186061	-8.291907	66.157004	39.466952
-1.315000	-0.679314	-3.115271	87.889519	-0.010548	-0.228786	0.004246	87.608297	-0.181879	-5.203578	27.364010	0.843677	-18.907844	-34.046649	16.090524	6.148923	34.873155	20.813174	4.107358	4.107807	38.524604	21.521260	-7.932875	-3.222850	57.663500	28.717028	-25.143528	-8.287734	66.182829	39.339679
-1.305000	-0.679314	-3.115271	87.889519	-0.010563	-0.228747	0.004251	87.649772	-0.170276	-5.189993	27.301952	0.795418	-18.879571	-33.880176	16.095840	6.158413	34.818371	20.819545	4.072672	4.091553	38.544157	21.507281	-7.910107	-3.208053	57.628633	28.674647	-25.067876	-8.303024	66.154525	39.210282
